# Blender v2.74 (sub 0) OBJ File: ''
# www.blender.org
v -21.694050 24.013535 -75.875343
v -21.694050 -1.132249 -75.875351
v -21.694050 -1.132265 21.851952
v 20.551332 24.013535 -75.875343
v 20.551332 -1.132249 -75.875351
v 20.551332 24.013519 21.851955
v 20.551332 -1.132265 21.851952
v -21.694050 24.013519 21.851955
vn -1.000000 0.000000 0.000000
vn 0.000000 0.000000 -1.000000
vn 1.000000 0.000000 0.000000
vn 0.000000 -0.000000 1.000000
vn 0.000000 -1.000000 -0.000000
vn 0.000000 1.000000 0.000000
s 1
f 1//1 2//1 3//1
f 4//2 5//2 2//2
f 6//3 7//3 5//3
f 8//4 3//4 7//4
f 2//5 5//5 7//5
f 4//6 1//6 8//6
f 8//1 1//1 3//1
f 1//2 4//2 2//2
f 4//3 6//3 5//3
f 6//4 8//4 7//4
f 3//5 2//5 7//5
f 6//6 4//6 8//6
