# Blender v2.74 (sub 0) OBJ File: 'Nirvana.blend'
# www.blender.org
v -69.114731 -661.773254 67.654373
v -69.114731 -661.773254 71.936111
v -69.114731 -661.773254 66.857246
v -69.179672 -661.774597 66.806686
v -69.114731 -661.773254 72.733322
v -69.179672 -661.774597 72.783806
v -431.967529 -669.267029 67.654373
v -69.114731 -661.773254 -67.654373
v -69.114731 -661.773254 -68.320587
v -69.114731 -661.773254 -69.043472
v -69.114731 -661.773254 -69.795250
v -69.114731 -661.773254 -70.547020
v -69.114731 -661.773254 -71.269905
v -69.114731 -661.773254 -71.936111
v -69.114731 -662.922119 -66.591202
v -69.114731 -662.922119 -67.070435
v -69.114731 -662.922119 -67.654373
v -69.114731 -662.922119 -68.320587
v -69.114731 -662.922119 -69.043472
v -69.114731 -662.922119 -69.795250
v -69.114731 -662.922119 -70.547020
v -69.114731 -662.922119 -71.269905
v -69.114731 -662.922119 -71.936111
v -69.114731 -662.922119 -72.520058
v -69.114731 -662.922119 -72.999290
v -69.114731 -662.922119 -287.655762
v -432.032471 -670.417175 -66.591202
v -432.032471 -670.417175 -67.070435
v -432.032471 -670.417175 -67.654373
v -432.032471 -670.417175 -68.320587
v -432.032471 -670.417175 -69.043472
v -432.032471 -670.417175 -69.795250
v -432.032471 -670.417175 -70.547020
v -432.032471 -670.417175 -71.269905
v -432.032471 -670.417175 -71.936111
v -432.032471 -670.417175 -72.520058
v -432.032471 -670.417175 -72.999290
v -432.032471 -670.417175 -287.655762
v -69.179672 -661.774597 -66.591202
v -69.114731 -661.773254 -66.857246
v -69.179672 -661.774597 -66.806686
v -69.114731 -661.773254 -72.733322
v -69.179672 -661.774597 -72.783806
v -69.179672 -661.774597 -72.999290
v -69.179672 -661.774597 -287.590820
v -431.967529 -669.267029 -66.591202
v -431.967529 -669.267029 -67.070389
v -431.967529 -669.267029 -67.654373
v -431.967529 -669.267029 -68.320587
v -431.967529 -669.267029 -69.043472
v -431.967529 -669.267029 -69.795250
v -431.967529 -669.267029 -70.547020
v -431.967529 -669.267029 -71.269905
v -431.967529 -669.267029 -71.936111
v -431.967529 -669.267029 -72.520103
v -431.967529 -669.267029 -72.999290
v -431.967529 -669.267029 -287.590820
v -69.114731 -661.773254 68.320587
v -69.114731 -661.773254 69.043472
v -69.114731 -661.773254 69.795250
v -69.114731 -661.773254 70.547020
v -69.114731 -661.773254 71.269905
v -69.114731 -662.922119 66.591202
v -69.114731 -662.922119 67.070435
v -69.114731 -662.922119 67.654373
v -69.114731 -662.922119 68.320587
v -69.114731 -662.922119 69.043472
v -69.114731 -662.922119 69.795250
v -69.114731 -662.922119 70.547020
v -69.114731 -662.922119 71.269905
v -69.114731 -662.922119 71.936111
v -69.114731 -662.922119 72.520058
v -69.114731 -662.922119 72.999290
v -69.114731 -662.922119 0.000000
v -69.114731 -662.922119 287.655762
v -432.032471 -670.417175 66.591202
v -432.032471 -670.417175 67.070435
v -432.032471 -670.417175 67.654373
v -432.032471 -670.417175 68.320587
v -432.032471 -670.417175 69.043472
v -432.032471 -670.417175 69.795250
v -432.032471 -670.417175 70.547020
v -432.032471 -670.417175 71.269905
v -432.032471 -670.417175 71.936111
v -432.032471 -670.417175 72.520058
v -432.032471 -670.417175 72.999290
v -432.032471 -670.417175 0.000000
v -432.032471 -670.417175 287.655762
v -69.179672 -661.774597 66.591202
v -69.179672 -661.774597 72.999290
v -69.179672 -661.774597 0.000000
v -69.179672 -661.774597 287.590820
v -431.967529 -669.267029 66.591202
v -431.967529 -669.267029 67.070389
v -431.967529 -669.267029 68.320587
v -431.967529 -669.267029 69.043472
v -431.967529 -669.267029 69.795250
v -431.967529 -669.267029 70.547020
v -431.967529 -669.267029 71.269905
v -431.967529 -669.267029 71.936111
v -431.967529 -669.267029 72.520103
v -431.967529 -669.267029 72.999290
v -431.967529 -669.267029 0.000000
v -431.967529 -669.267029 287.590820
vt 0.383878 0.999806
vt 0.383420 0.000195
vt 0.384253 0.000195
vt 0.374962 0.999985
vt 0.373577 0.999985
vt 0.373489 0.999806
vt 0.373115 0.999806
vt 0.373115 0.000195
vt 0.378684 0.999985
vt 0.378684 0.000017
vt 0.377377 0.000017
vt 0.384253 0.999806
vt 0.499997 0.000196
vt 0.379990 0.999985
vt 0.379991 0.000017
vt 0.499997 0.999985
vt 0.499997 0.000017
vt 0.384253 0.000017
vt 0.381247 0.999985
vt 0.381247 0.000017
vt 0.000125 0.999806
vt 0.000126 0.000195
vt 0.383790 0.999985
vt 0.382405 0.999985
vt 0.377377 0.999985
vt 0.376121 0.000017
vt 0.376120 0.999985
vt 0.374963 0.000017
vt 0.384253 0.999985
vt 0.383420 0.000017
vt 0.373948 0.000017
vt 0.383420 0.999985
vt 0.382405 0.000017
vt 0.373947 0.999985
vt 0.373115 0.000017
vt 0.376121 0.000195
vt 0.377377 0.000195
vt 0.373115 0.999985
vt 0.000013 0.000016
vt 0.374963 0.000195
vt 0.378684 0.000195
vt 0.379991 0.000195
vt 0.381247 0.000195
vt 0.382405 0.000195
vt 0.622618 0.000017
vt 0.621311 0.000017
vt 0.621311 0.999985
vt 0.615742 0.000196
vt 0.615742 0.999806
vt 0.620004 0.000017
vt 0.620004 0.999985
vt 0.615742 0.000017
vt 0.618748 0.000017
vt 0.618748 0.999985
vt 0.626880 0.000196
vt 0.999869 0.000196
vt 0.999869 0.999806
vt 0.623874 0.000017
vt 0.622617 0.999985
vt 0.625032 0.000017
vt 0.623874 0.999985
vt 0.616575 0.000017
vt 0.615742 0.999985
vt 0.626047 0.000017
vt 0.625032 0.999985
vt 0.617590 0.000017
vt 0.616575 0.999985
vt 0.626880 0.000017
vt 0.626047 0.999985
vt 0.622618 0.000196
vt 0.623874 0.000196
vt 0.999982 0.000017
vt 0.626880 0.999985
vt 0.617590 0.999985
vt 0.621311 0.000196
vt 0.620004 0.000196
vt 0.618748 0.000196
vt 0.625032 0.000196
vt 0.626505 0.999806
vt 0.616116 0.999806
vt 0.616575 0.000196
vt 0.617590 0.000196
vt 0.626047 0.000196
vt 0.373948 0.000195
vt 0.499997 0.999806
vt 0.000013 0.999984
vt 0.626880 0.999806
vt 0.999982 0.999985
vt 0.626417 0.999985
vt 0.616204 0.999985
vn -0.020600 0.999800 0.000000
vn -0.020700 0.999800 0.000000
vn 0.020600 -0.999800 0.000000
s off
f 41/1/1 47/2/1 46/3/1
f 14/4/2 42/5/2 43/6/2
f 43/6/1 44/7/1 56/8/1
f 20/9/3 32/10/3 33/11/3
f 39/12/1 46/3/1 103/13/1
f 19/14/3 31/15/3 32/10/3
f 74/16/3 87/17/3 27/18/3
f 18/19/3 30/20/3 31/15/3
f 45/21/1 57/22/1 56/8/1
f 41/1/2 40/23/2 8/24/2
f 21/25/3 33/11/3 34/26/3
f 22/27/3 34/26/3 35/28/3
f 15/29/3 27/18/3 28/30/3
f 23/4/3 35/28/3 36/31/3
f 16/32/3 28/30/3 29/33/3
f 24/34/3 36/31/3 37/35/3
f 13/27/1 53/36/1 52/37/1
f 25/38/3 37/35/3 38/39/3
f 17/24/3 29/33/3 30/20/3
f 14/4/1 54/40/1 53/36/1
f 12/25/1 52/37/1 51/41/1
f 11/9/1 51/41/1 50/42/1
f 10/14/1 50/42/1 49/43/1
f 9/19/1 49/43/1 48/44/1
f 82/45/3 81/46/3 68/47/3
f 103/13/1 93/48/1 89/49/1
f 81/46/3 80/50/3 67/51/3
f 76/52/3 87/17/3 74/16/3
f 80/50/3 79/53/3 66/54/3
f 102/55/1 104/56/1 92/57/1
f 83/58/3 82/45/3 69/59/3
f 84/60/3 83/58/3 70/61/3
f 77/62/3 76/52/3 63/63/3
f 85/64/3 84/60/3 71/65/3
f 78/66/3 77/62/3 64/67/3
f 86/68/3 85/64/3 72/69/3
f 98/70/1 99/71/1 62/61/1
f 88/72/3 86/68/3 73/73/3
f 79/53/3 78/66/3 65/74/3
f 97/75/1 98/70/1 61/59/1
f 96/76/1 97/75/1 60/47/1
f 95/77/1 96/76/1 59/51/1
f 2/65/1 100/78/1 6/79/1
f 4/80/1 94/81/1 7/82/1
f 93/48/1 94/81/1 4/80/1
f 6/79/1 101/83/1 102/55/1
f 99/71/1 100/78/1 2/65/1
f 7/82/1 95/77/1 58/54/1
f 39/12/1 41/1/1 46/3/1
f 43/6/1 54/40/1 14/4/1
f 54/40/1 43/6/1 55/84/1
f 55/84/1 43/6/1 56/8/1
f 21/25/3 20/9/3 33/11/3
f 91/85/1 39/12/1 103/13/1
f 20/9/3 19/14/3 32/10/3
f 15/29/3 74/16/3 27/18/3
f 19/14/3 18/19/3 31/15/3
f 44/7/1 45/21/1 56/8/1
f 48/44/1 47/2/1 41/1/1
f 41/1/1 8/24/1 48/44/1
f 22/27/3 21/25/3 34/26/3
f 23/4/3 22/27/3 35/28/3
f 16/32/3 15/29/3 28/30/3
f 24/34/3 23/4/3 36/31/3
f 17/24/3 16/32/3 29/33/3
f 25/38/3 24/34/3 37/35/3
f 12/25/1 13/27/1 52/37/1
f 26/86/3 25/38/3 38/39/3
f 18/19/3 17/24/3 30/20/3
f 13/27/1 14/4/1 53/36/1
f 11/9/1 12/25/1 51/41/1
f 10/14/1 11/9/1 50/42/1
f 9/19/1 10/14/1 49/43/1
f 8/24/1 9/19/1 48/44/1
f 69/59/3 82/45/3 68/47/3
f 91/85/1 103/13/1 89/49/1
f 68/47/3 81/46/3 67/51/3
f 63/63/3 76/52/3 74/16/3
f 67/51/3 80/50/3 66/54/3
f 90/87/1 102/55/1 92/57/1
f 70/61/3 83/58/3 69/59/3
f 71/65/3 84/60/3 70/61/3
f 64/67/3 77/62/3 63/63/3
f 72/69/3 85/64/3 71/65/3
f 65/74/3 78/66/3 64/67/3
f 73/73/3 86/68/3 72/69/3
f 61/59/1 98/70/1 62/61/1
f 75/88/3 88/72/3 73/73/3
f 66/54/3 79/53/3 65/74/3
f 60/47/1 97/75/1 61/59/1
f 59/51/1 96/76/1 60/47/1
f 58/54/1 95/77/1 59/51/1
f 6/79/2 5/89/2 2/65/2
f 100/78/1 101/83/1 6/79/1
f 1/74/2 3/90/2 4/80/2
f 4/80/1 7/82/1 1/74/1
f 89/49/1 93/48/1 4/80/1
f 90/87/1 6/79/1 102/55/1
f 62/61/1 99/71/1 2/65/1
f 1/74/1 7/82/1 58/54/1
