# Blender v2.74 (sub 0) OBJ File: 'Nirvana.blend'
# www.blender.org
v -2.662272 1.803843 -1.803843
v -2.662272 -1.803843 -1.803843
v -2.662272 -1.803843 1.803843
v 3.283120 1.803843 -1.803843
v 3.283120 -1.803843 -1.803843
v 3.283120 1.803843 1.803843
v 3.283120 -1.803843 1.803843
v -2.662272 1.803843 1.803843
vt 0.000000 0.000000
vt 1.000000 0.000000
vt 1.000000 1.000000
vn -1.000000 0.000000 0.000000
vn 0.000000 0.000000 -1.000000
vn 1.000000 -0.000000 0.000000
vn 0.000000 -0.000000 1.000000
vn 0.000000 -1.000000 -0.000000
vn 0.000000 1.000000 0.000000
s 1
f 1/1/1 2/2/1 3/3/1
f 4/1/2 5/2/2 2/3/2
f 6/1/3 7/2/3 5/3/3
f 8/1/4 3/2/4 7/3/4
f 2/1/5 5/2/5 7/3/5
f 4/1/6 1/2/6 8/3/6
f 8/1/1 1/2/1 3/3/1
f 1/1/2 4/2/2 2/3/2
f 4/1/3 6/2/3 5/3/3
f 6/1/4 8/2/4 7/3/4
f 3/1/5 2/2/5 7/3/5
f 6/1/6 4/2/6 8/3/6
